<svg xmlns="http://www.w3.org/2000/svg" xmlns:xlink="http://www.w3.org/1999/xlink" width="144.215" height="14.823" viewBox="0 0 144.215 14.823">
  <defs>
    <linearGradient id="linear-gradient" x1="-0.593" y1="1.471" x2="1.124" y2="-0.12" gradientUnits="objectBoundingBox">
      <stop offset="0" stop-color="#4facfe"/>
      <stop offset="1" stop-color="#00f2fe"/>
    </linearGradient>
  </defs>
  <g id="logo-dark" transform="translate(-178.983 -347.34)">
    <path id="command" d="M3.457.5A2.96,2.96,0,0,1,6.413,3.457V4.43h2.93V3.457A2.957,2.957,0,1,1,12.3,6.413h-.974v2.93H12.3A2.957,2.957,0,1,1,9.343,12.3v-.974H6.413V12.3A2.957,2.957,0,1,1,3.457,9.343H4.43V6.413H3.457A2.957,2.957,0,1,1,3.457.5ZM4.43,4.43V3.457a.974.974,0,1,0-.974.974Zm7.87,0a.974.974,0,1,0-.974-.974V4.43ZM9.343,6.413H6.413v2.93h2.93ZM12.3,13.274a.974.974,0,1,0,0-1.948h-.974V12.3A.975.975,0,0,0,12.3,13.274Zm-8.843,0A.975.975,0,0,0,4.43,12.3v-.974H3.457a.974.974,0,1,0,0,1.948Z" transform="translate(178.483 346.907)" fill="url(#linear-gradient)"/>
    <path id="Path_10" data-name="Path 10" d="M.7-13.34H5.92a6.841,6.841,0,0,1,1.83.23,4.135,4.135,0,0,1,1.42.68,3.127,3.127,0,0,1,.92,1.12,3.514,3.514,0,0,1,.33,1.57,3.27,3.27,0,0,1-.16,1.09,4.215,4.215,0,0,1-.34.75,2.494,2.494,0,0,1-.5.6,3.379,3.379,0,0,1,.8.72,4.285,4.285,0,0,1,.55.96,3.586,3.586,0,0,1,.25,1.42,4.31,4.31,0,0,1-.34,1.74,3.71,3.71,0,0,1-.97,1.33,4.287,4.287,0,0,1-1.54.84A6.666,6.666,0,0,1,6.14,0H.7ZM5.3-3.14q1.52,0,1.52-1.16T5.3-5.46H4.82v2.32Zm1-6.14q0-.92-1-.92H4.82v1.84H5.3Q6.3-8.36,6.3-9.28ZM5.58-1.6a3.785,3.785,0,0,0,2.6-.76,2.592,2.592,0,0,0,.84-2.02,2.21,2.21,0,0,0-.35-1.31,3.182,3.182,0,0,0-.75-.77,3.177,3.177,0,0,0-1.1-.44,2.505,2.505,0,0,0,.86-.44,2.492,2.492,0,0,0,.61-.71A2.208,2.208,0,0,0,8.56-9.2a2.287,2.287,0,0,0-.8-1.9,3.4,3.4,0,0,0-2.18-.64H2.7V-1.6ZM3.22-2.08V-6.66H5.56a4.82,4.82,0,0,1,1.15.13,2.867,2.867,0,0,1,.93.4,1.907,1.907,0,0,1,.63.71A2.216,2.216,0,0,1,8.5-4.38a1.959,1.959,0,0,1-.81,1.76,3.778,3.778,0,0,1-2.13.54Zm0-5.06v-4.12H5.58a2.572,2.572,0,0,1,1.87.57A2.015,2.015,0,0,1,8.02-9.2a2.015,2.015,0,0,1-.57,1.49,2.572,2.572,0,0,1-1.87.57Zm8.7-6.2h7.86v3.5h-3.6v1.48h3.54v3.32H16.18V-3.5h3.74V0h-8ZM18.44-1.6v-.48h-4V-6.46h3.8v-.48h-3.8v-4.32h4v-.48H13.92V-1.6Zm2.68-11.74h3.5L28.3-8.2v-5.14h4.18V0H28.96L25.3-5.12V0H21.12ZM23.5-1.6v-9.24L30.1-1.6h.52V-11.74H30.1V-2.5l-6.6-9.24h-.52V-1.6Zm11.7-.14q.28.06.6.1.28.04.59.07t.63.03a4.559,4.559,0,0,0,1.09-.13,2.74,2.74,0,0,0,.95-.43,2.2,2.2,0,0,0,.67-.77,2.423,2.423,0,0,0,.25-1.15,2.225,2.225,0,0,0-.29-1.1,5.093,5.093,0,0,0-.74-1,12.566,12.566,0,0,0-.96-.92q-.51-.44-.96-.89a5.5,5.5,0,0,1-.74-.9A1.7,1.7,0,0,1,36-9.76a1.375,1.375,0,0,1,.46-1.11,2.274,2.274,0,0,1,1.48-.39q.16,0,.33.01t.33.03a2.578,2.578,0,0,0,.32.02v-.52a2.426,2.426,0,0,1-.3-.02q-.14-.02-.31-.03t-.35-.01a3.033,3.033,0,0,0-1.78.49,1.738,1.738,0,0,0-.7,1.53,2.027,2.027,0,0,0,.29,1.05,5.3,5.3,0,0,0,.74.96q.45.47.96.91t.96.89a4.922,4.922,0,0,1,.74.93,1.907,1.907,0,0,1,.29,1,1.73,1.73,0,0,1-.65,1.46,2.87,2.87,0,0,1-1.79.5,7.078,7.078,0,0,1-1.24-.1q-.3-.04-.58-.1Zm-1.68-2.4a6.62,6.62,0,0,0,.92.22,7.289,7.289,0,0,0,.91.16,8.808,8.808,0,0,0,1.03.06q.92,0,.92-.68a.761.761,0,0,0-.28-.53,8.421,8.421,0,0,0-.71-.6q-.43-.33-.92-.73a6.664,6.664,0,0,1-.92-.92,4.81,4.81,0,0,1-.71-1.17,3.736,3.736,0,0,1-.28-1.49,3.846,3.846,0,0,1,.34-1.66,3.338,3.338,0,0,1,.94-1.2,4.225,4.225,0,0,1,1.41-.73,5.836,5.836,0,0,1,1.73-.25,9.26,9.26,0,0,1,.96.05l.86.09.86.12v3.74q-.16-.02-.36-.04-.16-.02-.36-.04t-.42-.02q-.12,0-.3.01a1.815,1.815,0,0,0-.34.05.694.694,0,0,0-.28.14.344.344,0,0,0-.12.28q0,.16.27.4t.66.56q.39.32.86.74a5.964,5.964,0,0,1,.86.96,5.606,5.606,0,0,1,.66,1.22,4.087,4.087,0,0,1,.27,1.52,4.791,4.791,0,0,1-.28,1.65,3.506,3.506,0,0,1-.87,1.34,4.157,4.157,0,0,1-1.51.9,6.465,6.465,0,0,1-2.18.33A13.212,13.212,0,0,1,35.73.27Q35.08.2,34.58.1a9.658,9.658,0,0,1-1.06-.24Zm8.76-2.52a6.817,6.817,0,0,1,.55-2.72,7.062,7.062,0,0,1,1.5-2.23,7.062,7.062,0,0,1,2.23-1.5,6.817,6.817,0,0,1,2.72-.55,6.817,6.817,0,0,1,2.72.55,7.062,7.062,0,0,1,2.23,1.5,7.062,7.062,0,0,1,1.5,2.23,6.817,6.817,0,0,1,.55,2.72,6.817,6.817,0,0,1-.55,2.72,7.062,7.062,0,0,1-1.5,2.23A7.062,7.062,0,0,1,52-.21a6.817,6.817,0,0,1-2.72.55,6.817,6.817,0,0,1-2.72-.55,7.062,7.062,0,0,1-2.23-1.5,7.062,7.062,0,0,1-1.5-2.23A6.817,6.817,0,0,1,42.28-6.66Zm1.88,0a4.983,4.983,0,0,0,.4,1.99,5.171,5.171,0,0,0,1.1,1.63,5.171,5.171,0,0,0,1.63,1.1,4.983,4.983,0,0,0,1.99.4,4.983,4.983,0,0,0,1.99-.4,5.171,5.171,0,0,0,1.63-1.1A5.171,5.171,0,0,0,54-4.67a4.983,4.983,0,0,0,.4-1.99A4.983,4.983,0,0,0,54-8.65a5.171,5.171,0,0,0-1.1-1.63,5.171,5.171,0,0,0-1.63-1.1,4.983,4.983,0,0,0-1.99-.4,4.983,4.983,0,0,0-1.99.4,5.171,5.171,0,0,0-1.63,1.1,5.171,5.171,0,0,0-1.1,1.63A4.983,4.983,0,0,0,44.16-6.66Zm2.32,0a2.722,2.722,0,0,0,.22,1.09,2.831,2.831,0,0,0,.6.89,2.831,2.831,0,0,0,.89.6,2.722,2.722,0,0,0,1.09.22,2.722,2.722,0,0,0,1.09-.22,2.831,2.831,0,0,0,.89-.6,2.831,2.831,0,0,0,.6-.89,2.722,2.722,0,0,0,.22-1.09,2.722,2.722,0,0,0-.22-1.09,2.831,2.831,0,0,0-.6-.89,2.831,2.831,0,0,0-.89-.6,2.722,2.722,0,0,0-1.09-.22,2.722,2.722,0,0,0-1.09.22,2.831,2.831,0,0,0-.89.6,2.831,2.831,0,0,0-.6.89A2.722,2.722,0,0,0,46.48-6.66Zm2.8,4.6a4.449,4.449,0,0,1-1.79-.36,4.676,4.676,0,0,1-1.46-.99,4.676,4.676,0,0,1-.99-1.46,4.449,4.449,0,0,1-.36-1.79,4.449,4.449,0,0,1,.36-1.79,4.676,4.676,0,0,1,.99-1.46,4.676,4.676,0,0,1,1.46-.99,4.449,4.449,0,0,1,1.79-.36,4.449,4.449,0,0,1,1.79.36,4.676,4.676,0,0,1,1.46.99,4.676,4.676,0,0,1,.99,1.46,4.449,4.449,0,0,1,.36,1.79,4.449,4.449,0,0,1-.36,1.79,4.676,4.676,0,0,1-.99,1.46,4.676,4.676,0,0,1-1.46.99A4.449,4.449,0,0,1,49.28-2.06Zm8.1-11.28h3.5L64.56-8.2v-5.14h4.18V0H65.22L61.56-5.12V0H57.38ZM59.76-1.6v-9.24l6.6,9.24h.52V-11.74h-.52V-2.5l-6.6-9.24h-.52V-1.6Zm15.7-.14q.28.06.6.1.28.04.59.07t.63.03a4.559,4.559,0,0,0,1.09-.13,2.74,2.74,0,0,0,.95-.43,2.2,2.2,0,0,0,.67-.77,2.423,2.423,0,0,0,.25-1.15,2.225,2.225,0,0,0-.29-1.1,5.093,5.093,0,0,0-.74-1,12.566,12.566,0,0,0-.96-.92q-.51-.44-.96-.89a5.5,5.5,0,0,1-.74-.9,1.7,1.7,0,0,1-.29-.93,1.375,1.375,0,0,1,.46-1.11,2.274,2.274,0,0,1,1.48-.39q.16,0,.33.01t.33.03a2.577,2.577,0,0,0,.32.02v-.52a2.426,2.426,0,0,1-.3-.02q-.14-.02-.31-.03t-.35-.01a3.033,3.033,0,0,0-1.78.49,1.738,1.738,0,0,0-.7,1.53,2.027,2.027,0,0,0,.29,1.05,5.3,5.3,0,0,0,.74.96q.45.47.96.91t.96.89a4.922,4.922,0,0,1,.74.93,1.907,1.907,0,0,1,.29,1,1.73,1.73,0,0,1-.65,1.46,2.87,2.87,0,0,1-1.79.5,7.078,7.078,0,0,1-1.24-.1q-.3-.04-.58-.1Zm-1.68-2.4a6.62,6.62,0,0,0,.92.22,7.289,7.289,0,0,0,.91.16,8.808,8.808,0,0,0,1.03.06q.92,0,.92-.68a.761.761,0,0,0-.28-.53,8.422,8.422,0,0,0-.71-.6q-.43-.33-.92-.73a6.664,6.664,0,0,1-.92-.92,4.81,4.81,0,0,1-.71-1.17,3.736,3.736,0,0,1-.28-1.49,3.846,3.846,0,0,1,.34-1.66,3.338,3.338,0,0,1,.94-1.2,4.225,4.225,0,0,1,1.41-.73,5.836,5.836,0,0,1,1.73-.25,9.26,9.26,0,0,1,.96.05l.86.09.86.12v3.74q-.16-.02-.36-.04-.16-.02-.36-.04t-.42-.02q-.12,0-.3.01a1.815,1.815,0,0,0-.34.05.694.694,0,0,0-.28.14.344.344,0,0,0-.12.28q0,.16.27.4t.66.56q.39.32.86.74a5.964,5.964,0,0,1,.86.96,5.606,5.606,0,0,1,.66,1.22,4.087,4.087,0,0,1,.27,1.52,4.791,4.791,0,0,1-.28,1.65,3.506,3.506,0,0,1-.87,1.34,4.157,4.157,0,0,1-1.51.9A6.465,6.465,0,0,1,77.4.34,13.212,13.212,0,0,1,75.99.27Q75.34.2,74.84.1a9.659,9.659,0,0,1-1.06-.24Zm9.36-9.2H87.4V-8.8h2.38v-4.54h4.28V0H89.78V-4.94H87.4V0H83.14ZM85.66-1.6V-6.66h5.88V-1.6h.52V-11.74h-.52v4.6H85.66v-4.6h-.52V-1.6ZM99.42-13.34h3.2L107.68,0h-4.2l-.44-1.2H99L98.56,0h-4.2Zm2.5,9.2-.9-2.34-.9,2.34ZM97.34-1.6l.38-1h6.6l.38,1h.56L101.4-11.74h-.76L96.78-1.6Zm3.68-9.66,3.12,8.18H97.9Zm6.96,8.06h1.46a1.163,1.163,0,0,0,.86-.24.97.97,0,0,0,.22-.68v-9.22h4.4v9.96a3.387,3.387,0,0,1-.85,2.62,4,4,0,0,1-2.71.76h-3.38Zm3.22,1.6a1.829,1.829,0,0,0,1.38-.43,1.835,1.835,0,0,0,.4-1.29v-8.42h-.54v8.42a1.609,1.609,0,0,1-.22.93q-.22.31-1.02.31h-1.62v.48Zm5.06-11.74h4.52V0h-4.52ZM118.78-1.6V-11.74h-.52V-1.6Z" transform="translate(202.418 361)" fill="#e2ebf0"/>
  </g>
</svg>
